<svg xmlns="http://www.w3.org/2000/svg" viewBox="0 0 927.96 928.96"><path fill="#00744b" d="M463.8 0S256.9 113.57 125.9 340.47.02 803.3.02 803.3 194.14 929 463.1 929s464.5-125.65 464.5-125.65 13.48-222.63-125.38-463.15S463.8 0 463.8 0z"/><path fill="#ffe67a" d="M464.2 12.24s-201.47 110.57-329 331.5S12.63 794.38 12.63 794.38s189 122.34 450.86 122.34 452.28-122.34 452.28-122.34S928.9 577.62 793.7 343.44 464.2 12.24 464.2 12.24z"/><path fill="#00744b" d="M540.45 501.52l-19.82 33.97h-157l-78 136h-40l98-170 196.82.03zm-39.82 68.98l-19 34h-77l-39 67h-40l58-101h117zm-137-104l98.7-170.77 19.3 34.77-68.46 118.75c-2.8 4.87-10.54 17.25-10.54 17.25zm216.73 33.95l19.27 34.04-79 137h-39l98.73-171.04zm39.74 68.1l19.53 33.93-39 69h-40l59.47-102.93zM442.63 466.5l58.93-102.16 20.07 33.16-40 69h-39zm-37 205l20-34h38l-19 34h-39zM561.3 466.13h-40.28l20.16-34.63zm97.73 170.17l20 34.65H639.2zM339.1 746.2c-42.3 5.65-83.8 15.13-125.1 25.62-21.94 5.57-43.3 4.12-63-7.74s-30.2-29.93-32.95-52.63c-1.84-15.17 1.5-29.87 4.1-44.6 7-39.5 18.16-77.86 31.72-115.52a847.42 847.42 0 0 1 41.28-95.19 899 899 0 0 1 46.27-81 840.85 840.85 0 0 1 59.37-81.84 756 756 0 0 1 54.16-59.06c19.54-19 39.47-37.67 61.86-53.22 10.76-7.47 43.7-29 43.7-29s28.33 16.93 40.76 25.26c19.85 13.3 38.06 28.7 55.5 45 9.3 8.7 18.88 17.17 27.38 26.6 18 20 36 40.15 53 61.08 26.4 32.56 49.26 67.62 70.22 103.88a929.52 929.52 0 0 1 46.11 91.33 849.8 849.8 0 0 1 47.16 137.36c4.5 18.15 9.16 36.6 10.38 55.14 1.9 29.2-9.46 53.48-35.15 69.1-18.4 11.14-38.6 12.3-59.14 7.24-39.82-9.78-79.8-18.7-120.33-25-39.67-6.15-83.4-12.78-135.4-12.78-50 .05-121.9 9.97-121.9 9.97zm366.15-91.12c-10-17.3 5.82-29.88 5.82-29.88l-14.1-24.2s-18.6 7.27-28.87-10.52 5.84-29.3 5.84-29.3l-14.25-24.1s-19.33 5.4-28.7-10.83c-9.63-16.7 5.2-29.87 5.2-29.87l-14-24.25s-18.5 7.2-28.92-10.85c-10.07-17.45 5.42-29.85 5.42-29.85L585.2 408s-19.82 5.67-28.82-9.92c-9.5-16.45 5.32-30.78 5.32-30.78L548.2 344s-18.32 8.26-28.82-9.92 5.32-30.8 5.32-30.8l-13.5-23.38s-19.32 6.54-29.32-10.78 5.82-29.92 5.82-29.92l-27.36-45.6L434.1 239s15.72 12.54 6.16 29.1c-8.94 15.48-28 8-28 8l-16 28s14.95 11.75 5 29-28.16 11.55-28.16 11.55L359.6 368s15.82 12.6 5.82 29.92-28.16 9.14-28.16 9.14l-15 26s13.3 14.6 4.8 29.3-26.56 10.06-26.56 10.06L286 497.55s15.95 10.36 4.95 29.4-28.66 11.1-28.66 11.1l-14 24s15.66 11.66 6.16 28.1c-9 15.6-28.16 8.9-28.16 8.9l-15 25s14.88 15.6 6 31c-9.12 15.78-30 11-30 11l-26 46h55s.1-21 21-21c21.1 0 22 21 22 21h31s.1-21 22-21c21.1 0 21 21 21 21h32s.1-21 22-21c22.1 0 22 21 22 21h30s1.1-21 22-21c20.1 0 22 21 22 21h30s.1-21 21-21c20.1 0 21 21 21 21h32s-1.82-20.5 22.1-20.5c21.1 0 21.9 20.5 21.9 20.5h30s2.1-21 23-21c22.1 0 23 21 23 21H761l-26.5-46.15s-18.72 7.37-29.24-10.85z"/><g fill="#231815"><path d="M73.2 707.68a15.42 15.42 0 0 1 5.11 2.17 10.85 10.85 0 0 1 3.2 3.29A11.39 11.39 0 0 1 83 717a14.76 14.76 0 0 1 .17 4.1 11.68 11.68 0 0 1-2.33 6.3 11.9 11.9 0 0 1-4.73 3.6 19.4 19.4 0 0 1-5.63 1.45 26.71 26.71 0 0 1-5.35 0 25 25 0 0 1-6.19-1.38 17.38 17.38 0 0 1-5.13-2.91 11.54 11.54 0 0 1-3.32-4.46 12.24 12.24 0 0 1-.8-6 11.18 11.18 0 0 1 3.82-7.9 14.82 14.82 0 0 1 8.86-3.13l.06 5.5a25.78 25.78 0 0 0-2.6.42 9.42 9.42 0 0 0-2.35.88 6.07 6.07 0 0 0-2 1.75 5.59 5.59 0 0 0-1 2.88 5.25 5.25 0 0 0 .95 3.83 8.26 8.26 0 0 0 3.06 2.41 16.37 16.37 0 0 0 3.74 1.27 33.89 33.89 0 0 0 3.42.53 23.51 23.51 0 0 0 5.74-.06 10.7 10.7 0 0 0 3.89-1.28 6.27 6.27 0 0 0 2.19-2.07 5.74 5.74 0 0 0 .86-2.55 5.88 5.88 0 0 0-1.41-4.45 8.15 8.15 0 0 0-4.84-2.66zM87.6 680l-.77 5.82-14-1.85-1.64 12.4 14 1.85-.77 5.83-32.4-4.28.77-5.76 13.36 1.77 1.63-12.4-13.35-1.77.77-5.83zm-4.1-33.4a15.76 15.76 0 0 1 4.8 3.67 12.68 12.68 0 0 1 2.66 5 13.27 13.27 0 0 1 .24 5.91 12.63 12.63 0 0 1-2.56 6 12 12 0 0 1-4.68 3.55 18 18 0 0 1-5.78 1.43 24 24 0 0 1-6-.24 21.93 21.93 0 0 1-6.1-2 17 17 0 0 1-4.83-3.61 13.37 13.37 0 0 1-.87-16.67 12.44 12.44 0 0 1 4.38-3.68 16.41 16.41 0 0 1 5.74-1.66 23.63 23.63 0 0 1 6.43.22 22.72 22.72 0 0 1 6.57 2.08zm-9.3 3.94a27.13 27.13 0 0 0-2.06-.15 15.75 15.75 0 0 0-2.45.08 12 12 0 0 0-2.45.48 6.92 6.92 0 0 0-2.13 1 5.36 5.36 0 0 0-1.36 1.38 6.42 6.42 0 0 0-.69 1.43 11.21 11.21 0 0 0-.33 1.36 6.42 6.42 0 0 0 .4 3.82 7 7 0 0 0 2.32 2.75 13.56 13.56 0 0 0 3.59 1.8 27.87 27.87 0 0 0 4.41 1.1 32.37 32.37 0 0 0 3.81.4 16.18 16.18 0 0 0 3.94-.35 7.45 7.45 0 0 0 3.47-1.73 6 6 0 0 0 1.86-3.66 6.43 6.43 0 0 0-.46-3.85 7 7 0 0 0-2.23-2.82 13.66 13.66 0 0 0-3.06-1.61 26.67 26.67 0 0 0-5-1.24l-1.6-.2zm24.9-32.86l-1.1 5.28-23 8.27a5.6 5.6 0 0 1-.85.25l-2.22.56-.85.23 24 5-1 4.6-32-6.65 1.33-6.4 21.2-7.3c.1 0 .6-.16 1.5-.44l2.66-.75-22.6-4.7 1-4.6zm7.54-31.1l-.62 2.52-4.72.7a10 10 0 0 1 2.78 4.69 10.93 10.93 0 0 1-.13 5 11.58 11.58 0 0 1-3.53 6.22 12.45 12.45 0 0 1-5.57 2.84 20 20 0 0 1-5.77.47 27.31 27.31 0 0 1-4.68-.67 23.48 23.48 0 0 1-5.44-2.1 17.36 17.36 0 0 1-4.7-3.63 12.46 12.46 0 0 1-2.83-11.85 13.56 13.56 0 0 1 2.08-4.64 10.92 10.92 0 0 1 4.2-3.45 9.8 9.8 0 0 1 3-1.09 18.16 18.16 0 0 1 3-.24h.25l-.37 5.2a17 17 0 0 0-1.9.13 8.32 8.32 0 0 0-2.07.61 5.62 5.62 0 0 0-2.08 1.58 7.07 7.07 0 0 0-.12 9 12 12 0 0 0 2.88 2.43 18.08 18.08 0 0 0 5.13 1.92 28.22 28.22 0 0 0 4.56.77 13.75 13.75 0 0 0 4.09-.22 7.17 7.17 0 0 0 3.31-1.66 7.22 7.22 0 0 0 1.13-8.78 7.59 7.59 0 0 0-4.89-3.28l-1.63 6.6-4.52-1.12 3-11.94zm15-28.42l-.34 1.74-.4 1.52a10.38 10.38 0 0 1-1.7 3.64 4.76 4.76 0 0 1-4.24 2 15.18 15.18 0 0 1-2.19-.37c0 .12-.1.38-.17.76l-.37 1.48a12.36 12.36 0 0 1-3.07 5.49 12.07 12.07 0 0 1-4.91 3 17.17 17.17 0 0 1-5.87.82 23.66 23.66 0 0 1-6-.92 24.06 24.06 0 0 1-5.94-2.56 17.1 17.1 0 0 1-4.55-4 12.09 12.09 0 0 1-2.46-5.23 13.41 13.41 0 0 1 .38-6.32 20.37 20.37 0 0 1 1-2.6 11.55 11.55 0 0 1 1.77-2.71 11.34 11.34 0 0 1 3.33-2.56 15.57 15.57 0 0 1 5.22-1.59 19.31 19.31 0 0 1 3.87-.15 22.76 22.76 0 0 1 4.84.9 22.17 22.17 0 0 1 7.15 3.4 15.33 15.33 0 0 1 4.65 5.59q.06.12.2.5l.33 1 .5 1.3a.9.9 0 0 0 .55.41 1.87 1.87 0 0 0 1.57-.32 2.9 2.9 0 0 0 1.15-1.71l.46-1.78.46-2.13zm-27.66-2.36a15.32 15.32 0 0 0-4 0 7.12 7.12 0 0 0-3.43 1.42 6.11 6.11 0 0 0-2.12 3.31 6.37 6.37 0 0 0 0 3.79 6.92 6.92 0 0 0 2 3 14 14 0 0 0 3.41 2.24 27.37 27.37 0 0 0 4.42 1.65 26.19 26.19 0 0 0 4.7.94 12.06 12.06 0 0 0 3.9-.19 6.21 6.21 0 0 0 3-1.52 6.5 6.5 0 0 0 1.77-3.06 6.64 6.64 0 0 0 0-4 7.11 7.11 0 0 0-2-3 13.58 13.58 0 0 0-3.33-2.17 27.18 27.18 0 0 0-4.17-1.55 29.08 29.08 0 0 0-4.15-.86zm23.3-6.04L86.1 540l1.76-5.6 31.18 9.8zm11.97-35.97l-1.76 5.1-23.9 5.3a6.52 6.52 0 0 1-.88.14c-.36 0-1.12.12-2.27.28l-.87.1 23.17 8-1.53 4.45-30.9-10.66 2.12-6.16 21.94-4.58c.1 0 .6-.08 1.53-.25l2.73-.4-21.82-7.5 1.53-4.45zm11.4-29.88l-.94 2.42-4.77.1a10 10 0 0 1 2.17 5 11 11 0 0 1-.77 5 11.6 11.6 0 0 1-4.29 5.73 12.48 12.48 0 0 1-5.88 2.11 19.92 19.92 0 0 1-5.78-.26 28.63 28.63 0 0 1-4.56-1.26 23.29 23.29 0 0 1-5.13-2.77 17.45 17.45 0 0 1-4.21-4.19 12.51 12.51 0 0 1-1.31-12.12 14 14 0 0 1 2.64-4.33 11 11 0 0 1 4.62-2.9 10.25 10.25 0 0 1 3.15-.7 20.14 20.14 0 0 1 3.05.15h.24l-1 5.12a17.41 17.41 0 0 0-1.9-.1 8 8 0 0 0-2.13.33 5.84 5.84 0 0 0-2.26 1.31 7 7 0 0 0-1.76 2.71 6.85 6.85 0 0 0 .51 6.18 11.94 11.94 0 0 0 2.55 2.77 18.35 18.35 0 0 0 4.85 2.56 29.35 29.35 0 0 0 4.42 1.33 13.71 13.71 0 0 0 4.09.3 7.08 7.08 0 0 0 3.49-1.23 7.2 7.2 0 0 0 2.23-8.57 7.58 7.58 0 0 0-4.44-3.86l-2.44 6.3-4.43-1.7 4.43-11.47zm6.65-44.7l2.76 1.34a12.2 12.2 0 0 1 2.14 1.52 8.15 8.15 0 0 1 1.77 2.33 10 10 0 0 1 1 3.3 9.8 9.8 0 0 1-.2 3.75 19.32 19.32 0 0 1-1 3.1 17.85 17.85 0 0 1-.92 1.76 16.8 16.8 0 0 1-1.37 2 10.36 10.36 0 0 1-1.86 1.82 6.89 6.89 0 0 1-2.3 1.18 9.53 9.53 0 0 1-4.45.34 20 20 0 0 1-4.44-1.48l-19.58-8.77 2.46-5.5 19.17 8.56a13.69 13.69 0 0 0 2.95 1 4.73 4.73 0 0 0 2.47-.1 5 5 0 0 0 2-1.34 7.72 7.72 0 0 0 2.12-5 4.18 4.18 0 0 0-.52-2.43 5.17 5.17 0 0 0-1.66-1.74 17 17 0 0 0-2.44-1.34l-19.18-8.6 1.92-4.3zm24.44-23.57l-2.38 4.84-24.38 2.26a5.9 5.9 0 0 1-.89 0h-3.16l22 10.8-2.07 4.22-29.37-14.4 2.87-5.85 22.35-1.8 1.55-.05 2.76-.07-20.7-10.18 2.08-4.22zm3.4-6.43L146.2 394l2.74-5.2 28.93 15.2zm9.36-17.5l-33.46-7.12 3-5.43 25.52 5.66-18.06-18.88 2.4-4.28 23.6 24.83zm9.83-17.3l-28-16.9 10.87-18 4.2 2.5-7.83 13 7.6 4.6 6.3-10.4 4.06 2.46-6.3 10.35 7.85 4.74L201 353.6l4.32 2.6zm24.27-38.6l-14-3.1-4.54 6.92 11.2 7.38-3.22 4.9L180.7 334l7.78-11.86a17.34 17.34 0 0 1 3.26-3.87 9.75 9.75 0 0 1 3.54-1.87 8.83 8.83 0 0 1 3.66-.17 9.87 9.87 0 0 1 3.85 1.59 10.05 10.05 0 0 1 2.74 2.52 7.76 7.76 0 0 1 1.53 5c0 .66-.1 1.37-.2 2.12l15.2 3.1zm-22.5 1.2l4-6.14a10.08 10.08 0 0 0 1.06-2.06 6.44 6.44 0 0 0 .42-2.11 4.17 4.17 0 0 0-.5-2.05 5.08 5.08 0 0 0-1.76-1.8 4.56 4.56 0 0 0-3.64-.69 6.05 6.05 0 0 0-3.54 2.9l-4.3 6.55zm23.3-18.55a7.62 7.62 0 0 0 2.69.53 4.93 4.93 0 0 0 3-1.21 12.79 12.79 0 0 0 2.87-2.95 10 10 0 0 0 1.5-2.87 5.48 5.48 0 0 0 .26-2.28 3.81 3.81 0 0 0-1.5-2.66 4.23 4.23 0 0 0-1.75-.76 3.68 3.68 0 0 0-1.6.1 5 5 0 0 0-1.3.61 12.27 12.27 0 0 0-1.15.86l-5.75 4.88a9.26 9.26 0 0 1-5.65 2.45 8.77 8.77 0 0 1-5.55-1.74 8.65 8.65 0 0 1-3.92-6.79 12.86 12.86 0 0 1 2.66-8.29 17.2 17.2 0 0 1 3.36-3.54 12.49 12.49 0 0 1 4.15-2.13 7 7 0 0 1 2.77-.34 9.68 9.68 0 0 1 2.26.54l-2.08 5.38a5.64 5.64 0 0 0-1.27-.27 4.58 4.58 0 0 0-1.51.13 5.13 5.13 0 0 0-1.83.89 8.25 8.25 0 0 0-1.91 2 8.5 8.5 0 0 0-1.26 2.41 4.18 4.18 0 0 0-.2 2 3.86 3.86 0 0 0 .55 1.51 3.71 3.71 0 0 0 1 1 2.88 2.88 0 0 0 1.54.55 3.69 3.69 0 0 0 1.57-.27 7.8 7.8 0 0 0 1.43-.75 11.34 11.34 0 0 0 1.3-1l4.32-3.72a21.44 21.44 0 0 1 2.3-1.72 11.09 11.09 0 0 1 2.75-1.24 7.57 7.57 0 0 1 3.48-.2 9.1 9.1 0 0 1 3.89 1.71 8.88 8.88 0 0 1 4 7.29 15 15 0 0 1-3.17 9.22c-2.4 3.36-5.16 5.5-8.34 6.4a8 8 0 0 1-3.1.35 14.2 14.2 0 0 1-3-.69h-.15zm22.5-15.68l-26.18-19.57 3.52-4.7 26.18 19.57zm11.1-14.6l-21.77-17-5.35 6.82-4-3.1 14.62-18.65 4 3.1-5.34 6.84 21.77 17zm15.97-19.98l-10.6-8.8-21.66-3.5 4.53-5.47 15.32 2.64-5.65-14.3 3.63-4.37 7.8 20.22 10.6 8.8zm32.13-51.03a15.73 15.73 0 0 1 2 5.68 12.67 12.67 0 0 1-.44 5.61 13.46 13.46 0 0 1-3 5.09 12.66 12.66 0 0 1-5.41 3.66 12.16 12.16 0 0 1-5.85.46 18.4 18.4 0 0 1-5.64-1.93 23.73 23.73 0 0 1-4.91-3.46 21.44 21.44 0 0 1-4.06-5 17.06 17.06 0 0 1-2.11-5.64 13.39 13.39 0 0 1 8.3-14.49 12.33 12.33 0 0 1 5.67-.73 16.78 16.78 0 0 1 5.73 1.72 23.52 23.52 0 0 1 5.28 3.67 22.42 22.42 0 0 1 4.44 5.36zm-10-1.73a21.6 21.6 0 0 0-1.66-1.25 18.8 18.8 0 0 0-2.1-1.26 13.07 13.07 0 0 0-2.31-.92 7.44 7.44 0 0 0-2.36-.29 5.47 5.47 0 0 0-1.88.43 5.77 5.77 0 0 0-1.29.85 10.4 10.4 0 0 0-1 1 6.35 6.35 0 0 0-1.73 3.43 6.89 6.89 0 0 0 .45 3.57 13.69 13.69 0 0 0 2.05 3.46 28 28 0 0 0 3.11 3.31 30.2 30.2 0 0 0 3 2.4 15.49 15.49 0 0 0 3.5 1.83 7.52 7.52 0 0 0 3.85.44 6.07 6.07 0 0 0 3.55-2.07 6.48 6.48 0 0 0 1.7-3.49 7.23 7.23 0 0 0-.35-3.58 14 14 0 0 0-1.7-3 26.06 26.06 0 0 0-3.5-3.72 18.06 18.06 0 0 0-1.29-1.14zm21.53 3.46l-23.45-22.76 14.37-14.8 3.62 3.5-10.17 10.5 6.43 6.25 8-8.27 3.52 3.42-8 8.26 9.88 9.6zm27.77-28l-22.45-23.75 9.73-9.2a18 18 0 0 1 3-2.36 10.25 10.25 0 0 1 3.1-1.18 9.07 9.07 0 0 1 4.85.28 9.88 9.88 0 0 1 3.91 2.57 10.4 10.4 0 0 1 2.31 3.65 8.75 8.75 0 0 1 .48 3.9 10.88 10.88 0 0 1-1.13 3.76 12 12 0 0 1-2.45 3.26l-5.95 5.62 8.9 9.4zm-8.08-17.1l5.1-4.8a5.55 5.55 0 0 0 2.1-4 4.85 4.85 0 0 0-1.38-3.38 4.65 4.65 0 0 0-1.32-1 5.83 5.83 0 0 0-1.34-.52c-1.5-.42-3.24.3-5.2 2.14l-4.7 4.44zM374.3 147a15.7 15.7 0 0 1 1.44 5.87 12.63 12.63 0 0 1-1 5.53 13.32 13.32 0 0 1-3.51 4.75 12.65 12.65 0 0 1-5.75 3.08 12.25 12.25 0 0 1-5.87-.16 18.33 18.33 0 0 1-5.41-2.5 24.14 24.14 0 0 1-4.52-3.95 21.17 21.17 0 0 1-3.52-5.37 16.83 16.83 0 0 1-1.51-5.83 13.4 13.4 0 0 1 9.76-13.55 12.43 12.43 0 0 1 5.72-.13 16.62 16.62 0 0 1 5.52 2.31 23.39 23.39 0 0 1 4.85 4.15 22.5 22.5 0 0 1 3.8 5.8zm-9.72-2.76l-1.52-1.4a16.41 16.41 0 0 0-2-1.47 12.87 12.87 0 0 0-2.2-1.15 7 7 0 0 0-2.31-.54 5.53 5.53 0 0 0-1.93.23 6.56 6.56 0 0 0-1.43.68 10.44 10.44 0 0 0-1.1.86 6.36 6.36 0 0 0-2.09 3.22 6.89 6.89 0 0 0 .09 3.6 13.85 13.85 0 0 0 1.67 3.66 28.3 28.3 0 0 0 2.75 3.61 30.13 30.13 0 0 0 2.72 2.7 16.24 16.24 0 0 0 3.29 2.19 7.51 7.51 0 0 0 3.79.83 6 6 0 0 0 3.74-1.68 6.54 6.54 0 0 0 2.06-3.3 7.16 7.16 0 0 0 0-3.59 13.45 13.45 0 0 0-1.38-3.17 26.28 26.28 0 0 0-3.09-4.08c-.26-.43-.64-.8-1.06-1.23zm16.92-2.84a7.57 7.57 0 0 0 2.46 1.19 5 5 0 0 0 3.17-.41 12.76 12.76 0 0 0 3.53-2.12 10.2 10.2 0 0 0 2.18-2.4 5.46 5.46 0 0 0 .84-2.13 3.87 3.87 0 0 0-.13-1.72 3.73 3.73 0 0 0-.65-1.24 4.19 4.19 0 0 0-1.5-1.18 3.58 3.58 0 0 0-1.57-.31 4.84 4.84 0 0 0-1.41.26 11 11 0 0 0-1.34.54l-6.8 3.25a9.21 9.21 0 0 1-6.08.93 9.44 9.44 0 0 1-7-10.66 12.83 12.83 0 0 1 4.69-7.34 16.41 16.41 0 0 1 4.14-2.56 12.39 12.39 0 0 1 4.56-1 7.26 7.26 0 0 1 2.77.37 9.58 9.58 0 0 1 2 1.11l-3.38 4.67a6 6 0 0 0-1.16-.59 4.74 4.74 0 0 0-1.49-.26 5.46 5.46 0 0 0-2 .4 8.38 8.38 0 0 0-2.36 1.46 8.78 8.78 0 0 0-1.83 2 4.3 4.3 0 0 0-.71 1.9 4.1 4.1 0 0 0 .15 1.6 3.9 3.9 0 0 0 .67 1.22 2.85 2.85 0 0 0 1.35.92 3.57 3.57 0 0 0 1.59.14 7.36 7.36 0 0 0 1.58-.36 12.93 12.93 0 0 0 1.49-.61l5.24-2.47a22.48 22.48 0 0 1 2.77-1.13 11.79 11.79 0 0 1 3-.5 7.65 7.65 0 0 1 3.42.69 9.43 9.43 0 0 1 3.33 2.65 8.87 8.87 0 0 1 2 8.08 15.09 15.09 0 0 1-5.42 8.1 15.66 15.66 0 0 1-9.69 4.08 8 8 0 0 1-3.09-.45 15.09 15.09 0 0 1-2.69-1.43l-.13-.1zm29.73-12.63l-17.15-21.67-6.8 5.4-3.14-4 18.56-14.7 3.13 4-6.8 5.38 17.16 21.67zm11.07-20.22a7.47 7.47 0 0 0 2.4 1.33 4.87 4.87 0 0 0 3.18-.24 12.92 12.92 0 0 0 3.64-1.93 10 10 0 0 0 2.31-2.28 5.53 5.53 0 0 0 .94-2.08 3.8 3.8 0 0 0 0-1.72 3.7 3.7 0 0 0-.59-1.28 4.06 4.06 0 0 0-1.43-1.25 3.47 3.47 0 0 0-1.55-.4 5.31 5.31 0 0 0-1.42.18 12.38 12.38 0 0 0-1.37.47l-7 2.88a9.24 9.24 0 0 1-6.12.61 9.45 9.45 0 0 1-6.42-11 12.87 12.87 0 0 1 5.08-7.08 16.79 16.79 0 0 1 4.28-2.34 12.45 12.45 0 0 1 4.6-.75 7.1 7.1 0 0 1 2.75.51 9.65 9.65 0 0 1 2 1.21l-3.62 4.5a5.8 5.8 0 0 0-1.13-.65 4.42 4.42 0 0 0-1.47-.34 5.3 5.3 0 0 0-2 .29 8.22 8.22 0 0 0-2.43 1.33 8.59 8.59 0 0 0-1.94 1.91 4.27 4.27 0 0 0-.81 1.86 3.83 3.83 0 0 0 .07 1.6 3.68 3.68 0 0 0 .6 1.26 2.9 2.9 0 0 0 1.3 1 3.66 3.66 0 0 0 1.57.23 7.77 7.77 0 0 0 1.6-.28 12 12 0 0 0 1.53-.53l5.26-2.22a22.06 22.06 0 0 1 2.81-1 11.54 11.54 0 0 1 3-.34 7.68 7.68 0 0 1 3.38.87 9.42 9.42 0 0 1 3.18 2.82 8.9 8.9 0 0 1 1.59 8.18 15.1 15.1 0 0 1-5.85 7.8 15.59 15.59 0 0 1-9.89 3.55 8 8 0 0 1-3.06-.61 14.92 14.92 0 0 1-2.61-1.57l-.13-.1zm77.95 14.58l-5.23-3.7 2.38-8.05-10.45-7.38-6.7 5-4.2-3 28.3-20.84 6 4.24zm-1.38-16.6l4.63-15-12.56 9.37zm28.86 37.6l-4.36-3.36 2.7-24.84a4.56 4.56 0 0 1 .15-.89l.47-2.3.17-.88-15.27 19.8-3.8-2.93 20.38-26.4 5.26 4.06-2.75 22.7c0 .1-.12.62-.26 1.56l-.5 2.78 14.4-18.64 3.8 2.93zm31.27-17.6l9.4 7.93a20.85 20.85 0 0 1 1.54 1.43 12.51 12.51 0 0 1 1.53 1.95 13.14 13.14 0 0 1 1.39 2.81 12.91 12.91 0 0 1 .74 3.63 15.18 15.18 0 0 1-.92 6.62 19.92 19.92 0 0 1-3.52 6 17.7 17.7 0 0 1-6.44 5.07 17.42 17.42 0 0 1-6.38 1.51 13.57 13.57 0 0 1-4.73-.95 18.45 18.45 0 0 1-5.75-3.45l-8.37-7.1zm-13.66 25.7l3.86 3.26a8.8 8.8 0 0 0 7.28 2.06q4.13-.62 7.86-5a16 16 0 0 0 2.39-3.75 12.37 12.37 0 0 0 1.06-4 8.51 8.51 0 0 0-.52-3.81 7.48 7.48 0 0 0-2.25-3.11l-4.4-3.7zm54.16 55.88l20-19.9-6.25-6.27 3.65-3.63 17 17.1-3.65 3.63-6.25-6.27-20 19.9zm17 17.44l24.46-22.68 14.58 15.73-3.6 3.4-10.45-11.35-6.64 6.15 8.43 9.1-3.56 3.3-8.43-9.1-6.85 6.35 10.64 11.48-3.78 3.5zm21.8 23.84l25.27-21.77 4.15 4.82-21.14 18.2 9.23 10.72-4.13 3.56zm19.63 23.14l26.06-20.8 13.4 16.75-3.9 3.1-9.64-12.07-7.08 5.65 7.75 9.7-3.8 3-7.74-9.7-7.3 5.86 9.8 12.23-4 3.22zm43.17 38.37a15.55 15.55 0 0 1-5.36 1.84 11 11 0 0 1-4.67-.32 11.66 11.66 0 0 1-3.77-1.91 15.16 15.16 0 0 1-2.93-3 11.87 11.87 0 0 1-2.52-6.37 12.14 12.14 0 0 1 1.14-6 20.08 20.08 0 0 1 3.29-4.94 28.24 28.24 0 0 1 4-3.68 25.75 25.75 0 0 1 5.65-3.17 17.9 17.9 0 0 1 5.88-1.29 11.81 11.81 0 0 1 5.6 1.16 12.53 12.53 0 0 1 4.72 4 11.5 11.5 0 0 1 2.49 8.6 15.25 15.25 0 0 1-4.61 8.42l-3.8-4.15a24.67 24.67 0 0 0 1.69-2.09 9.91 9.91 0 0 0 1.19-2.27 6.06 6.06 0 0 0 .35-2.72 5.63 5.63 0 0 0-1.19-2.88 5.32 5.32 0 0 0-3.34-2.25 8.33 8.33 0 0 0-4 .23 16.58 16.58 0 0 0-3.71 1.58l-3 1.93a24 24 0 0 0-4.32 4 10.88 10.88 0 0 0-2.08 3.62 6.5 6.5 0 0 0-.26 3.07 6.06 6.06 0 0 0 5.19 4.94 8.32 8.32 0 0 0 5.49-1.28zm19.4 30.58a16.25 16.25 0 0 1-6.13.66 12.91 12.91 0 0 1-5.45-1.79 13.72 13.72 0 0 1-4.34-4.19 13 13 0 0 1-2.33-6.24 12.48 12.48 0 0 1 1-5.92 19.09 19.09 0 0 1 3.27-5.13 24.12 24.12 0 0 1 4.61-4 21.62 21.62 0 0 1 5.9-2.83 17.14 17.14 0 0 1 6.1-.73 13 13 0 0 1 5.64 1.65 14.12 14.12 0 0 1 6.66 10.04 12.68 12.68 0 0 1-.65 5.8 16.56 16.56 0 0 1-3.08 5.27 23.92 23.92 0 0 1-4.9 4.36 23.38 23.38 0 0 1-6.3 3.05zm4.1-9.47l1.63-1.34a17.4 17.4 0 0 0 1.75-1.78 12.67 12.67 0 0 0 1.47-2.07 7.25 7.25 0 0 0 .86-2.27 5.24 5.24 0 0 0 0-2 6.19 6.19 0 0 0-.49-1.54 10 10 0 0 0-.71-1.24 6.5 6.5 0 0 0-3-2.54 7.14 7.14 0 0 0-3.65-.41 13.92 13.92 0 0 0-3.93 1.2 29.13 29.13 0 0 0-4 2.29 29.62 29.62 0 0 0-3.09 2.39 15.67 15.67 0 0 0-2.67 3 7.58 7.58 0 0 0-1.35 3.71 6.12 6.12 0 0 0 1.2 4 6.52 6.52 0 0 0 3 2.52 7.06 7.06 0 0 0 3.63.51 13.19 13.19 0 0 0 3.39-1 26.58 26.58 0 0 0 4.54-2.57c.43-.16.9-.48 1.38-.87zm7.98 47.6l25-15.1-29.77 7.2-1.65-2.68 20.2-23-25 15.1-2.53-4.2 28.54-17.26 4.86 8.05-14.74 17.03 22-5.22 4.9 8.1-28.54 17.25zm21.92 39.68l25.76-13.75-30.12 5.6-1.48-2.78 21.4-21.9-25.76 13.75-2.3-4.32 29.5-15.7 4.42 8.3-15.74 16.25 22.2-4 4.46 8.33-29.42 15.7zm29.07 32.38l-2.86 1.25a12.22 12.22 0 0 1-2.6.65 8.22 8.22 0 0 1-3-.16 10.51 10.51 0 0 1-3.24-1.4 9.84 9.84 0 0 1-2.77-2.64 16.91 16.91 0 0 1-2.48-4.75 18.75 18.75 0 0 1-.62-2.36 10.59 10.59 0 0 1-.18-2.65 7.12 7.12 0 0 1 .67-2.6 9.82 9.82 0 0 1 2.68-3.68 21.11 21.11 0 0 1 4.09-2.47l19.8-9.38 2.63 5.55-19.38 9.2a13.8 13.8 0 0 0-2.7 1.64 4.81 4.81 0 0 0-1.55 2 5.11 5.11 0 0 0-.29 2.43 8.21 8.21 0 0 0 .72 2.57 7.86 7.86 0 0 0 1.74 2.38 4.28 4.28 0 0 0 2.23 1.21 5.33 5.33 0 0 0 2.46-.14 16.8 16.8 0 0 0 2.65-1l19.38-9.2 2.05 4.34zm4.13 39.54l-2.14-5.07 14.53-20.32a5.5 5.5 0 0 1 .57-.7l1.54-1.76.58-.68-23 9.74-1.9-4.4 30.72-13 2.6 6.13-13.54 18.43c-.08.07-.4.48-1 1.24l-1.8 2.2 21.64-9.23 1.88 4.42zm4.62 11.9l31.13-12 2.15 5.6-31.12 12zm25.03 36.9a15.62 15.62 0 0 1-5.66.17 11.11 11.11 0 0 1-4.37-1.67 11.68 11.68 0 0 1-3-2.94 14.93 14.93 0 0 1-1.91-3.73 11.77 11.77 0 0 1-.53-6.83 11.94 11.94 0 0 1 2.84-5.36 19.87 19.87 0 0 1 4.59-3.75 28.06 28.06 0 0 1 4.93-2.34 25.62 25.62 0 0 1 6.33-1.36 17.49 17.49 0 0 1 6 .5 11.77 11.77 0 0 1 5 2.75 12.54 12.54 0 0 1 3.32 5.25 11.46 11.46 0 0 1-.15 9 15.19 15.19 0 0 1-6.88 6.7l-2.4-5.1a25.29 25.29 0 0 0 2.23-1.5 9.71 9.71 0 0 0 1.8-1.82 6 6 0 0 0 1.14-2.49 5.66 5.66 0 0 0-.29-3.1 5.34 5.34 0 0 0-2.53-3.14 8.28 8.28 0 0 0-3.88-1 16.23 16.23 0 0 0-4 .42c-1.25.3-2.4.62-3.4 1a23.78 23.78 0 0 0-5.29 2.51 10.93 10.93 0 0 0-3.06 2.85 6.66 6.66 0 0 0-1.15 2.86 6.15 6.15 0 0 0 .29 2.73 6 6 0 0 0 3.22 3.51 8.31 8.31 0 0 0 5.62.4zm.4 38.22l-1.87-6.12 6.82-4.9-3.73-12.2-8.37-.17-1.5-4.93 35.14.9 2.14 7zm9.07-14l12.84-9-15.67-.3zm-6.1 25.03l27.24-7.3-2.3-8.55 5-1.33 6.26 23.32-5 1.34-2.3-8.55-27.23 7.3zm6.1 23.75l32.44-7.74 1.4 5.84-32.43 7.74zm18.98 41.4a16.09 16.09 0 0 1-5.92-1.72 13 13 0 0 1-4.37-3.69 13.74 13.74 0 0 1-2.41-5.53 12.86 12.86 0 0 1 .22-6.65 12.42 12.42 0 0 1 3.14-5.11 18.66 18.66 0 0 1 5-3.5 24.08 24.08 0 0 1 5.8-2 21.6 21.6 0 0 1 6.53-.37 17 17 0 0 1 5.93 1.64 13.66 13.66 0 0 1 7 15.54 12.66 12.66 0 0 1-2.8 5.12 16.91 16.91 0 0 1-4.86 3.7 24.13 24.13 0 0 1-6.19 2.16 23 23 0 0 1-7.07.41zm7.4-7.18l2-.62a17.81 17.81 0 0 0 2.3-1 12.49 12.49 0 0 0 2.15-1.36 7.34 7.34 0 0 0 1.65-1.77 5.44 5.44 0 0 0 .78-1.82 6.13 6.13 0 0 0 .13-1.61 9.21 9.21 0 0 0-.19-1.41 6.58 6.58 0 0 0-1.78-3.49 7.17 7.17 0 0 0-3.22-1.77 13.86 13.86 0 0 0-4.09-.38 29.67 29.67 0 0 0-4.6.58 30.91 30.91 0 0 0-3.77 1 16.25 16.25 0 0 0-3.62 1.79 7.69 7.69 0 0 0-2.67 2.92 6.28 6.28 0 0 0-.42 4.17 6.54 6.54 0 0 0 1.87 3.49 7.16 7.16 0 0 0 3.16 1.86 13.59 13.59 0 0 0 3.5.4 27.43 27.43 0 0 0 5.18-.65c.5-.05 1.04-.18 1.64-.33zM842.37 693l-.87-5.43 19-16.26a5.12 5.12 0 0 1 .73-.54l2.63-1.87-24.7 4-.76-4.74 32.93-5.28 1 6.56-17.55 14.67q-.14.08-1.26 1l-2.26 1.68 23.26-3.8.76 4.74zm11.23 13.82a7.52 7.52 0 0 0-2.39 1.44 5 5 0 0 0-1.42 2.93 13.07 13.07 0 0 0-.16 4.2 10.26 10.26 0 0 0 .83 3.2 5.6 5.6 0 0 0 1.36 1.9 4 4 0 0 0 1.54.86 3.77 3.77 0 0 0 1.42.13 4.22 4.22 0 0 0 1.84-.62 3.66 3.66 0 0 0 1.15-1.17 5.57 5.57 0 0 0 .57-1.35 14.14 14.14 0 0 0 .28-1.44l1-7.62a9.51 9.51 0 0 1 2.6-5.72 9.63 9.63 0 0 1 13 0 13.07 13.07 0 0 1 3.65 8.1 16.88 16.88 0 0 1-.11 5 12.86 12.86 0 0 1-1.69 4.45 7.17 7.17 0 0 1-1.86 2.16 9.35 9.35 0 0 1-2.09 1.12l-2.1-5.48a6.53 6.53 0 0 0 1.15-.67 4.84 4.84 0 0 0 1-1.13 5.55 5.55 0 0 0 .78-1.93 8.7 8.7 0 0 0 .07-2.83 9.08 9.08 0 0 0-.7-2.69 4.47 4.47 0 0 0-1.23-1.66 3.84 3.84 0 0 0-1.45-.76 3.62 3.62 0 0 0-1.42-.11 2.88 2.88 0 0 0-1.53.63 3.8 3.8 0 0 0-1 1.28 8.74 8.74 0 0 0-.57 1.55 11.56 11.56 0 0 0-.31 1.62l-.73 5.78a23 23 0 0 1-.58 3 11.86 11.86 0 0 1-1.23 2.81 7.71 7.71 0 0 1-2.49 2.54 9.46 9.46 0 0 1-4.12 1.36 9 9 0 0 1-8-2.77 15.3 15.3 0 0 1-3.9-9.16 16 16 0 0 1 1.92-10.55 8.05 8.05 0 0 1 2.11-2.38 14.39 14.39 0 0 1 2.72-1.51l.14-.07zM661.3 810.77c2.17-.75 2.3-1.78.9-3.25zm4.58-15.2c-.32.35-.43 1-.8 1.16-1.52.84-.87 1.42-.33 1.8l1.64 1.32-1.9 1.76 1.1 1 .53-.82 2.8.6c-.38.76-.18 1.67.2 2.87l.6 2.5a4.55 4.55 0 0 0-1.88.7c-4 2.87-7.68 6-11.48 9.1l-12.26 9.94a8.73 8.73 0 0 1-1.53.76l-.4-.38a8.41 8.41 0 0 1 1.08-1.53l7.3-6.65a186.12 186.12 0 0 0 5-4.67 6 6 0 0 0 1.06-2.44c.3-.86.55-1.73.8-2.6l.66-2.28c-1.75-.68-2.54-.12-3.17 1.17-1.18 2.45-1.23 2.4-3.23.4a8 8 0 0 0-1.45-.74v6.32c0 .64.1 1.52-.27 1.88s-.77.8-1.18 1.17a3.87 3.87 0 0 1-2.16 1.22c-1.82.07-2.1-1.9-2.08-3.3a63.1 63.1 0 0 1 .61-7.25 13.3 13.3 0 0 0-1.84-8.9 3.06 3.06 0 0 1-.1-2.8c.84-1 2-.4 3 .35 2 1.47 2.2 3.66 2.52 5.8.28 1.93.3 2 2.62 1.93 0-.53.12-1.1.12-1.65l-.08-8.27H654c0 1 .45 1.75 1.52 1.37a2 2 0 0 0 .83-.72l2.83.3a11.36 11.36 0 0 0-.4 1.06 6.69 6.69 0 0 1 .43.5l4.45-3.3 2.4 1.1c-.04.05-.12.15-.2.24zm-9.33 7.66c1.9-.08 2.66-1.05 2.67-2.48 0-.4-1-1.27-1.26-1.17-1.74.56-1.4 2.04-1.4 3.65zm-364.52 43.24c.64 2.95-.37 5.07-3.14 6.5l-11.3 5.76c-1.76.9-4.06.15-6.2-1.7-1.54-1.36-1.17-2.68-.45-4.25 1.72-3.7 3.4-7.44 5-11.2.93-2.24.6-2.72-1.83-2.73-1.42 0-2.1-.34-2.08-1.88s.45-2.4 2.2-2.2a9.48 9.48 0 0 0 1.65-.09c-1.17-3.84.5-7 2-10.28.48-1.1 1.62-2.66-.17-3.44-1.52-.66-2.12.93-2.78 2l-5.14 8c-.7 1.07-1.6 1.6-2.9.94-1.05-.53-2.1-1.13-3.42-1.86l6.12-8.1 5.22-6.8a3.64 3.64 0 0 0 .92-1.5 22.64 22.64 0 0 0-.06-3.29c-1 .2-2.3.13-3.08.68-1.85 1.3-3.47 2.9-5.2 4.36l-16.14 13.46a2.61 2.61 0 0 1-2.11.29q-5.78-1.85-11.46-3.9a8.21 8.21 0 0 1-1.89-1.31c.57-.58 1-1.37 1.74-1.72L276 803.3c3-1.44 4.4-2.95 4.1-6.35-.35-3.82.5-4.4 4.55-4.4a12.5 12.5 0 0 1 3.63.15 4.36 4.36 0 0 1 2.32 1.84c.18.3-.86 1.28-1.3 2s-1.37 1.68-1.16 2.1c.64 1.34 1.75.67 2.72.12 2.26-1.27 2.78-1.07 4.52 1.72.9 1.44.4 2.73-1.47 3.85l-3.46 2.06c-1.15.7-2.28 1.4-3.4 2.15a3.49 3.49 0 0 0-1.55 1.9c-.13.83.26 2.4.73 2.5a3.89 3.89 0 0 0 3-.57 12.08 12.08 0 0 0 2.5-3.3 2.94 2.94 0 0 1 .52-.67c.63-.63 1.35-.58 2.27.12a42.5 42.5 0 0 0 3 2.07c1.4.9 1.7 2 .63 3.3l-7.58 9.23a3.38 3.38 0 0 1-3.9 1.32c-1.76-.57-2.92.08-3.5 1.92-.76 2.4-1.83 4.68-2.7 7-.54 1.47-.78 2.72 1.47 3.25a3.07 3.07 0 0 1 1.7 5 42.5 42.5 0 0 0-4.14 6.73c-.35.66 0 1.64 0 2.47a7 7 0 0 0 2.5-.58c2.22-1.6 4.3-3.38 6.44-5.06 1.8-1.52 3.07-1.05 3.6 1.3zm64.07-18.32c-.12 3-1 3.64-3.94 3.34l-5.45-.35c-1.8-.25-2.3-1.3-1-2.65l6.26-6.1c1.05-1 2.2-1 2.7.4a53.13 53.13 0 0 1 1.42 5.35zm65.16-22.35a4.31 4.31 0 0 0-.66 4.87c.84 1.13 3.86 1.77 5.27 1 .36-.2.82-.63.83-1v-9.26l-5.44 4.4zm22.56-21.27c2.2-1.65 2.78-1.87 5.66-1.06a12.44 12.44 0 0 1-1.76 2l-1.38 1-10.36 7.4a3.15 3.15 0 0 0-1.12 2c-.15 2-.05 4.06-.05 6.27.28 0 .56 0 .83.06l-.28 2.9a1.77 1.77 0 0 0-1.39.35c-1.05 1.23-2.1 2.56-1.53 4.38a4.14 4.14 0 0 0 3-1.84h2.6l-2.36 3.62-1.62 2.82.6.47a18 18 0 0 1 2.2 0c.62.07 1.52.17 1.75.55s-.1 1.26-.44 1.73l-3.7 4.65a50.23 50.23 0 0 0-3.52 5c-.26.45.37 1.4.6 2.1.9-.36 2.07-.5 2.63-1.12 1.1-1.24 1.72-2.9 2.84-4.15l1.14-1.28 2 .3c-.28.3-.33 1-.3 2.1a9.31 9.31 0 0 0 0 1.18 4.55 4.55 0 0 1-2.82 5.29 73.33 73.33 0 0 0-6.61 3.38 16.33 16.33 0 0 0-3.84 3.28c-1.45 1.7-2.35 2-4.13.44-1-.9-2.67-2.37-2.45-3.2.3-1.14 2-2.25 3.28-2.73 1.7-.65 2.58-1.42 2.43-3.24a14.81 14.81 0 0 1 .15-2.49c-1.05-.95-3.63.85-3.33-1.67.07-.65 2-1.08 3.6-1.84l.44-7.76c-2.22-.4-2.93-.1-3.47 2.64a7.81 7.81 0 0 1-2.14 3.71c-2 2.33-3.68 4.86-5.53 7.3-1.32 1.74-4.95 2.32-6.78 1.06a9 9 0 0 1-1.32-1.6c4.25-.47 6.3-3.48 8.88-5.75 1.7-1.5 1.65-2.77.35-4.6-.28-.4-.1-1.23.08-1.8a20.59 20.59 0 0 0 1.07-3.09 2.28 2.28 0 0 0-.86-1.94 2.37 2.37 0 0 0-2 .74c-2.72 3.32-5.24 6.8-8 10.1a13.48 13.48 0 0 1-4.17 3.46c-1.9.93-3.44.1-3.9-1.53s.7-4.62 2.27-4.7c2.46-.14 3.84-1.6 5.38-3.13 6.2-6.15 12.33-12.38 18.78-18.3 2.37-2.17 2.34-4.45 2.13-7.44-1.8 1.2-3.33 2.34-5 3.3a7.83 7.83 0 0 1-2.23.53 6.47 6.47 0 0 1 .76-2c2.57-3.2 5.16-6.4 7.9-9.47 2.3-2.6 2.58-5.32 1.46-8.44-.27-.76-.42-2 0-2.43a3.15 3.15 0 0 1 2.59-.32 16 16 0 0 1 8.29 5.65c1.23 1.56 1.08 3-.3 4.17a44.07 44.07 0 0 1-4.18 3.12c-3 2-3 2.16-2 6.37 3.2-2.2 6.25-4.27 9.18-6.47zm215.43 36.87l-25.5 22.53a4.23 4.23 0 0 1-3.65.67c-1.36-.7-2.35-2.2-3.3-3.47-.16-.22.5-1.22 1-1.66l7-6.48a4.3 4.3 0 0 1 4.24-1.54l-1.5 3.5.46.52a13.72 13.72 0 0 0 2.78-1.42l21.68-17.73 1.2 1.37-4.38 3.7zm-136.7 2.44c2 2.27 1.7 4.53-.88 6.3-2.87 2-5.87 3.78-8.62 5.88a11.33 11.33 0 0 0-1.21 1.06l-1.06-1.5c1.08-.72 1.9-1 2.22-1.52a80.89 80.89 0 0 0 3.6-6.6c.22-.46-.22-1.24-.35-1.87l-2.5-1.4a5.05 5.05 0 0 0 1.83-1.12 5.75 5.75 0 0 1 2-1.3c1.6-.6 3.2.07 4.96 2.06zm-154.53-.2c-.52-2.86.07-3.53 2.9-3.9-.75-2.1-1.68-2.42-3.13-1.24a13.15 13.15 0 0 1-1.75 1.32c-1.15.66-1.9 1.63-1 2.7.5.64 1.75.7 2.97 1.12zm-2.24-13.14c.55.2 1.55.3 1.87 0l5.17-5.68c-2.6-.35-7.28 2.7-7.5 4.33-.06.42.16 1.22.46 1.35zm.13 2.9h-5.8c.7 1.1 1.32 2.47 1.56 2.4a36.27 36.27 0 0 0 4.49-1.66zm9 11a2.12 2.12 0 0 1 1.1 1.22c.06.25-.7.68-1.05 1l-1.57 1.68-2.2-.16.5-.23c-.15-.4-.3-1.5-.7-1.58a6 6 0 0 0-2.86.25 12.28 12.28 0 0 0-2.4 1.27l-.74-.2-2.88-.47a11.67 11.67 0 0 0 .29-1.82c.14-1.3-.6-2-2.12-2a2.17 2.17 0 0 1-1.69-1.05c-.4-1 .32-1.48 1.43-1.56a1.45 1.45 0 0 0 1-1c.07-.36-.36-.88-.7-1.2-1-1-2.22-1.76-2.88-2.88a4.46 4.46 0 0 1-.37-3.3c.5-1.53-.14-2.12-1.32-2.8s-1.88 0-2.56.88l-25.3 33.48c-3.15 4.25-5.85 8.83-8.7 13.3-.86 1.37-1.9 2.2-3.62 1.94a3.45 3.45 0 0 1-3-2.84c-1-3.56.06-10.07 4.68-12a8.2 8.2 0 0 0 2.54-2.22q21.43-23.38 42.85-46.8c1.3-1.42 2.78-2.7 4.1-4.1.35-.38.7-1.2.53-1.5a2.19 2.19 0 0 0-1.59-.81 7.52 7.52 0 0 0-2.58.39l-18.4 6.12c-1.74.6-3.2.44-4.38-1l-5.65-6.84a22.76 22.76 0 0 1 4.56-.53 42 42 0 0 0 19.35-2.2 11.26 11.26 0 0 0 2.12-1.37 22 22 0 0 0-1.67-1.81c-2.24-1.9-4.58-3.7-6.7-5.7a3.23 3.23 0 0 1-.87-2.71 3.66 3.66 0 0 1 2.28-1.83c2-.6 3.8.3 5.47 1.42a46.07 46.07 0 0 0 5.35 3.12c1.08.5 2.3.88 3.3-.65s3.3-.87 4 .85c.6 1.34 1 2.76 1.6 4.06a1.89 1.89 0 0 0 1.4 1c.44 0 .92-.73 1.17-1.23.42-.85.5-2.4 1.06-2.55 1.67-.46 3.6-.42 4.84 1.1a30.4 30.4 0 0 1 3.23 4.73c1.14 2.13.7 2.77-1.68 3.6a82.76 82.76 0 0 0-7.89 2.93c-4.77 2.24-8.36 5.93-11.9 9.63-.74.76-1.45 1.54-2.22 2.28s-2.13 1.3-1.1 2.66c.76 1 2.86.9 3.84-.12l5.63-5.93a14.45 14.45 0 0 1 2.05-2.15 5.47 5.47 0 0 1 2.71-1.09 2.43 2.43 0 0 1 1.76 1.25c.18.34-.43 1.18-.84 1.67s-1.05.47-1.32.86a9.6 9.6 0 0 0-.82 2c.78.22 1.55.47 2.34.64.14 0 .35-.16.5-.27 3.7-2.33 5.3-1.88 7 2.15a3.17 3.17 0 0 1-.29 2.49c-.23.4-1.3.34-2 .5a3.82 3.82 0 0 0-1.45.37l-3.35 2.5a98.89 98.89 0 0 0-3.46 2.75 1.6 1.6 0 0 0 1.06 3 2.28 2.28 0 0 0 1.79-1.09c.4-1.3.47-2.68 1.94-3a3.36 3.36 0 0 1 .74-.06c2 0 5.2 1.78 5.56 3.4a7.87 7.87 0 0 1-.05 4.06c-.43 1.3-1.6 2-3.35 2s-4.17-1.26-5.52 1.27c-.17.3-1.2.06-1.7.3a10.39 10.39 0 0 0-1.72 1.26 6.9 6.9 0 0 0 1.59 1c.64.35 1.36.07 1.88.3zm277.48-43a35 35 0 0 1 1.82 7.75 36.57 36.57 0 0 1-.15 5.72v.12h-2.6v-2.4c-.06-2.7-1-3.68-3.77-4a1.74 1.74 0 0 1-1.23-.61c-1.07-1.6-.3-6.13 1.2-7.35 1.74-1.43 3.96-1.24 4.73.76zm-143.34 40.33v2.3z"/><path d="M589.17 779.3a2.25 2.25 0 0 1 1.93 1c.76 1.7 1.8 3.54 1.7 5.26-.46 6.8-1.33 13.6-2 20.4v1.3c7.88-5.1 14.52-10.45 11.3-21.1l.87-.1a9.45 9.45 0 0 1 1.86 2.07 13.37 13.37 0 0 1-3.58 15.69 17 17 0 0 0-5.35 7.44 20.37 20.37 0 0 1-7.53 9.8 12.88 12.88 0 0 0-3.91 4.87c-1.54 3-3.27 5.88-4.9 8.83-.27.5-.47 1-.88 1.9l.07 1.18a2.94 2.94 0 0 0-2.15 1.2c-2.32 2.55-4.74 5-7.13 7.5-1.2 1.25-2.53 1.82-4.07.58-1.12-.9-1.2-2.88-.17-4.35a82.46 82.46 0 0 0 5.06-7.09c1.6-2.83 2.74-5.9 4.23-9.23h-9.84c-1.9 0-3.8.2-5.68.08s-3.5-.47-4.47-2.22-.3-2.92 1.44-3.5q10.05-3.3 20.06-6.68a3.8 3.8 0 0 0 2.55-2.78q4.53-15.14 9.2-30.24a3 3 0 0 1 1.41-1.84zm77.76.53c-1.52 0-1.5-1.4-1.55-2.5a4.88 4.88 0 0 1 2.37-4.71 5.13 5.13 0 0 1 5.4.06c5.56 3 6.3 9.56 1.6 14-.57.54-1.26 1-2 1.5l1.68 2.1 8.36-6.93a4.09 4.09 0 0 1 4.12-.85c4 1.14 6.5 5.74 4.56 9.35a75.83 75.83 0 0 1-7.33 11.27c-2 2.54-4.8 4.5-7.3 6.66a8.55 8.55 0 0 0-.9.87h-2.48c.14-.13.22-.24.2-.3-.32-1-.9-2.5-1.54-2.6a9.09 9.09 0 0 0-2.44 0l-.6-2.5a50.11 50.11 0 0 0 9.71-8.16l-.4-.7a13.43 13.43 0 0 0-2.24.9 63.56 63.56 0 0 1-5.84 3.82 2.85 2.85 0 0 0-1.45 1.26l-2.8-.6 1.35-2.12c-.17-.12-.34-.24-.5-.37l-.6.56-1.64-1.32a19.21 19.21 0 0 0 2.51-1.38 2.14 2.14 0 0 0 .91-1.42c0-.37-.68-.93-1.13-1-.24-.05-.6.26-.9.57l-2.4-1.1c-2.45-.58-3.64-.08-4.48 1.75l-2.83-.3a1.91 1.91 0 0 0 .4-1.09c-.14-2.5-.14-2.7 2.46-3.18 1.93-.36 3.87-.58 5.82-.82a4.35 4.35 0 0 0 3.89-2.72 48.41 48.41 0 0 0 2.57-6.6c.33-1.33-.2-2.9-.52-4.3-.1-.37-.92-.76-1.42-.77-.3 0-.65.67-.93 1.07-.1.15-.05.42-.16.56-.46.7-1 2-1.56 2.02zM444.1 805.38l.2 4.38c2.45-1.17 1.95-2.77 1.72-4.25 0-.3-.66-.63-1-.7s-.92.36-.92.57zm19.45 21.93a4.83 4.83 0 0 1 1.45 4.48 84.09 84.09 0 0 1-2.39 8.08c-.53 1.46-1.74 2-3.46 1.4l-8.66-2.65v2.33l.64 28.42c.12 3.15-1 5.14-3.87 6.37a20.73 20.73 0 0 0-2.22 1.3h-1.63c-1.68-1.66-1.7-2.38.3-3.66a5.66 5.66 0 0 0 2.61-5.23l-.13-28.8a22.68 22.68 0 0 0-1.87-9c-1-2.33-1.55-4.8-2.4-7.52l-.36-.1 2.7-.66a1.33 1.33 0 0 0 .77.56c.43 0 1.23-.53 1.26-.88a32.86 32.86 0 0 0 .07-5.25c0-.4-.87-.88-1.4-1-.26 0-.87.7-1 1.15a3.4 3.4 0 0 0-.06.46l-2.85-.32a8.28 8.28 0 0 0 0-1.23c-.14-2.68.13-5.38.12-8.07a5.83 5.83 0 0 0-.71-1.84 7.15 7.15 0 0 0-1.63 1.24l-.83 1.17h-2.6a3.5 3.5 0 0 0 .57-1.51c.05-.46-.16-1.28-.4-1.34a.85.85 0 0 0-.23 0l.28-2.9 2.75.2c0-.84.07-1.53.12-2.2 0-.38 0-1 .16-1.1 2.23-.84 1.35-2.64 1.28-4.06-.1-1.8 1-2.33 2.45-2.5s2.35.5 2.37 2.13a32.07 32.07 0 0 0 .57 4.1h.75a21.5 21.5 0 0 0 .47-2.74l.12-6.3a2.8 2.8 0 0 1 .91-1.69.7.7 0 0 1 .29-.14c1.54-.24 3.34-1.53 4.63.36a2.44 2.44 0 0 1-.09 3.41c-1.23 1.33-1.58 6.5-.55 7.94a1.72 1.72 0 0 0 1.22.43l1.2 1.54a9.3 9.3 0 0 0-3.74 6.61c-.07 4 0 8 0 12h-.1l.06 12.23a4.86 4.86 0 0 0 1.24 2.91c1.08 1.12 6.1 1.54 7.16.74a6 6 0 0 0 2.29-5.8 8.59 8.59 0 0 0-.74-2.44c-.66-1.5-1.47-2.95-2.14-4.46l-.74-1.6 1.82-.76a25.63 25.63 0 0 0 4.21 6.2zm39.95-8.24c-.9.47-2.6.8-3.08.33a5.34 5.34 0 0 1-1.33-3.45c0-.63 1-1.6 1.83-1.9a41.79 41.79 0 0 1 5.44-1.55c3.36-.8 3.36-.78 3.13-4.3l-3.38.33-.3-.56c.54-.46 1-1.16 1.63-1.34 2.17-.6 2.8-2 2.62-4-.1-1 0-2.08 0-3.66l-4.23 4.3-18.22 19.08c-.65.68-2.28 1.42-2.78 1.1a26.79 26.79 0 0 1-4.21-3.77c-.06-.06.2-.44.3-.66l10-19.13a1.87 1.87 0 0 1 1-.89c.9 3.78-1.14 7.37-.88 11.42 1.8-1.3 3.48-2.4 5-3.66l12.58-10.5a3.53 3.53 0 0 0 1.4-3.6c-.3-2.07-.44-4.15-.65-6.18 4.24-.92 5.7.2 6.4 5.12l1.94-1.23 2.23 1.54-3.78 2.76a2.07 2.07 0 0 0-.72 1.33c-.2 1.67-.3 3.36-.42 5l.7.4 1.2 1.52c-2.43 1.34-2.9 3.56-2.68 6.28l1.86-.06.06 2.9a1.12 1.12 0 0 0-.62.15 11 11 0 0 0-2.93 3.08 15.93 15.93 0 0 0-1.24 2.52 7.08 7.08 0 0 1-.46.81c-.34.5-1.17.72-1.8 1.06a9.55 9.55 0 0 1-.58-1.89 11.22 11.22 0 0 1 .33-2.27 56.3 56.3 0 0 1-5.39 3.57z"/><path d="M455.58 816.92c-1.17-4.33.34-8.28 2.36-12.1a7.73 7.73 0 0 0 .94-2.57c.22-1.56-.86-2.3-2.4-1.8a7.45 7.45 0 0 0-2.18 1.2l-1.2-1.54a.84.84 0 0 0 .4-.1 23.65 23.65 0 0 0 3.52-2.62 5.71 5.71 0 0 1 6.68-1 3.68 3.68 0 0 1 1.71 2.6 4 4 0 0 1-1.53 3.1c-3.94 1.95-5.22 5.4-5.84 9.14a16.84 16.84 0 0 0 1.33 9.87l-1.82.76a30.48 30.48 0 0 1-1.96-4.93zM363.5 835a4.22 4.22 0 0 0-2.61 1.32l-12.38 15.12a2.87 2.87 0 0 1-2.39.6 6.72 6.72 0 0 1-2.52-1.59c-1-.86-.53-1.83.15-2.62l4.44-4.84 13.15-14.17a3.58 3.58 0 0 0 .73-1.56l2.88.47c.17.7.2 1.9.53 2a5.07 5.07 0 0 0 2.69-.18 19.58 19.58 0 0 0 3-1.32l2.2.16a14.07 14.07 0 0 0 1.88 1.31 13.58 13.58 0 0 0 1.75.45c2 .7 2.27 1.83.9 3.42a14.23 14.23 0 0 1-2.14 2.11 5.79 5.79 0 0 0-2.29 5.12c0 2 .9 2.74 2.66 3 .6.08 1.22.06 1.82.13 1.33.17 2.66.47 2.74 2.08a3.5 3.5 0 0 1-3 3l-5.1.06c-1.46.06-2.13-.6-2.1-2v-1.76c-1.4-.32-2.42-.44-2.44 1.35s-1.1 2.4-2.8 2.4l-6.1.05c-1.6 0-1.9-.83-1.9-2.13s.06-2.24 1.8-2.13a36.79 36.79 0 0 0 4.06-.13c2.26-.1 3.18-1 3.36-3.13V840c0-3 0-2.88 3-3.84.7-.23 1.13-1.56 1.4-2.47.1-.34-.66-1.3-1-1.3-1 0-2.63.2-2.8.72-.66 1.88-2 1.75-3.57 1.88zm159.56 4.72a5 5 0 0 1 3.09.35c2.66 1.56 2.6 3.7-.08 5.15q-7.9 4.24-15.85 8.36a4 4 0 0 1-6-3.26l-.36-4.7-2.63-1.34 2.08-2.28c.7-.74 1.78-1.26 1.7-1.75a3.28 3.28 0 0 0-1.67-2.11c-3.28-1.56-4.16-1.2-5.8 2-.63 1.26-1.07 2.65-3 2.06a3 3 0 0 1-1.67-3.8 4.85 4.85 0 0 1 1.11-2.27l15.07-14.44v2.3a6.12 6.12 0 0 0 4.7.16l2.5 1.4c-.62.33-1.46.52-1.82 1-1 1.4-2 2.25-3.86 1.67a7.32 7.32 0 0 0-1.47-.1c2.38 2.1 2.36 2.1 1.7 5.1a13.09 13.09 0 0 0 0 2.27l1.06 1.5c-2.54 2.6-3.4 6-3.68 9.6-.13 1.6 1.94 2.55 3.9 1.76a43.26 43.26 0 0 0 4.78-2.58c1.4-.78 2.87-1.47 4.2-2.37a4.88 4.88 0 0 0 1.21-1.87c.3-.56.43-1.8.78-1.84zM505.13 835c1.65-.06 1.17-1.55 1.16-2.6a2.41 2.41 0 0 0-.24-1.33 5.58 5.58 0 0 0-1.25-1 5.37 5.37 0 0 0-.85 1.14 5 5 0 0 0-.17 1.36l-.4.27c.58.73 1.2 2.16 1.74 2.16zm26.85-50l1.56 2.06c1.25 1.8 1.1 3.3-.7 4.6l-13.36 9.6a13.81 13.81 0 0 1-2.15 1.46l-.44.22-1.2-1.52 10.1-10.78c.28-.3 0-1.06 0-1.6-.7 0-1.57-.16-2.06.17l-3.86 2.67-2.23-1.54 1.8-1.2 6.62-4.87c2.74-1.98 3.93-1.83 5.92.72zM290.1 759.35c1.63-.7 2.83-.12 2.83 1.57 0 2.65 1.26 4.4 3.3 5.94.75.58 1 1.72 1.67 2.78a21.76 21.76 0 0 1-2.25 3.81l-24.52 26.15a11.06 11.06 0 0 1-1.82 1.8 2 2 0 0 1-1.62.11 1.45 1.45 0 0 1-.55-1.31 10.85 10.85 0 0 1 1.23-2.89q5.6-8.62 11.32-17.2c3.26-4.88 6.2-9.82 6.5-15.88.12-2.23 1.72-3.95 3.9-4.88zm288.52 77.35l11.76-1 6.27-.55a10.29 10.29 0 0 1 8.68 3.85 2.05 2.05 0 0 1-.3 3.26 9.2 9.2 0 0 1-1.76 1.3q-4.46 2.3-9 4.5a13 13 0 0 1-2.18.62l-.38-.45a11.84 11.84 0 0 1 1.07-1.61l3.85-4c1.24-1.34 1-2.5-.87-2.8-3.17-.56-6.4-.8-9.64-1.16l-6.86-.72a4.14 4.14 0 0 0-.58 0zm83.1 6.8c1.94-.6 3.84-1.4 5.75-2.1v-.92a7.51 7.51 0 0 0-2.3-.32l-12.48 2.5c-1 .2-2.25.6-1.76 1.85a2.64 2.64 0 0 0 2.15 1.33c2.9-.6 5.78-1.45 8.64-2.34zm9.93-13.28a3 3 0 0 1 3.33 2.54l.52 2.32c.37 1.3-.24 2.06-1.36 2.72-2.56 1.5-2.4 2.32 0 3.93 1 .7 2.27 2.55 1.95 3.24a5.4 5.4 0 0 1-3.48 2.74c-5.5.72-11.06 1-16.58 1.48-2.1.17-4.17.42-6.25.6-2.26.2-3.3-.8-3.16-3 .3-4.34 1.9-5.9 6.08-7.17a46.14 46.14 0 0 0 8.74-3.89c2.53-1.4 2.78-4.13 1-6.33-1.92-2.38-1.87-3 .5-5l5.06-4.23c1-.84 2.22-1.8 1.15-3.12a2.82 2.82 0 0 0-4-.55c-.5.37-1 .76-1.5 1.15l-1.2-1.37c.63-.53 1.27-1 1.9-1.56 2.18-1.77 4.5-3.28 7.58-3.3a3.29 3.29 0 0 0 1.66-.86h2.48c-.62.78-.3 1.26 1.06 2.2.4.28.8.5 1.2.76 2.06 1.28 2.66 2.54 1.54 4.6s-2.33 3.9-5.14 3.8a2.83 2.83 0 0 0-1.58.69c-.94.74-1.8 1.6-2.72 2.37-2.08 1.73-2.23 2.1-1.82 5.2a37.91 37.91 0 0 0 3.05.05zm-149.15-52.5c.48.58 1 1.73.78 2.13-.4.6-1.47.78-2.28 1.07a3.21 3.21 0 0 1-1 0l-.12-.46-7.1 1.78a14.35 14.35 0 0 1-4.92.25c-3.2-.57-3.3-2.64-2.34-5.26a2.81 2.81 0 0 1 2.38-1.14 14.52 14.52 0 0 0 8.63-1.3 4 4 0 0 1 3.09.28 10.43 10.43 0 0 1 2.89 2.65zm6.34 33.45c.83 1.27-.2 2-1.1 2.57-1.9 1.12-3.88 2.1-5.87 3.08l-5.48 2.5-1.87.82a6 6 0 0 1-1.29.28l-.27-.5 1.2-1.25 3.5-3.8a7 7 0 0 0 .74-2.38c-.72-.08-1.6-.4-2.26-.4l-.06-2.9a15.61 15.61 0 0 0 2.06-.16c.4-.06.9-.67 1.06-1.13 1.1-3.18 4-3.9 6.32-1.4a38.12 38.12 0 0 1 3.34 4.68zm-84.94 5.95c-.06.6 0 1.25 0 1.88a13.34 13.34 0 0 0 .05 2.53 1.37 1.37 0 0 0 .26.53l-2.7.66c-.74-.18-1.2-.2-1.44.08l-2-.3a10.32 10.32 0 0 0 2.9-5.69zm.8 92.93h-3.78V886a19.31 19.31 0 0 1-3.58 2.6 26.25 26.25 0 0 1-4 2v-3.66a22.55 22.55 0 0 0 5.54-3.61 14.21 14.21 0 0 0 3.36-4.11h2.44zm9.96-7.1l3.63-.34a6.31 6.31 0 0 0 1.76 3.72 4.84 4.84 0 0 0 3.34 1.15 5.82 5.82 0 0 0 3.06-.8 6.53 6.53 0 0 0 2.15-2.13 12.33 12.33 0 0 0 1.4-3.6 18.86 18.86 0 0 0 .57-4.62v-.75a8.54 8.54 0 0 1-3.1 2.92 8.37 8.37 0 0 1-4.25 1.13 8.62 8.62 0 0 1-6.46-2.77 10.14 10.14 0 0 1-2.65-7.31 10.41 10.41 0 0 1 2.76-7.54 9.24 9.24 0 0 1 6.92-2.85 9.93 9.93 0 0 1 5.49 1.61 10.13 10.13 0 0 1 3.78 4.61 22.73 22.73 0 0 1 1.29 8.66 28.13 28.13 0 0 1-1.28 9.4 11 11 0 0 1-3.81 5.32 9.87 9.87 0 0 1-5.93 1.83 8.14 8.14 0 0 1-8.65-7.64zm15.47-13.6a7.4 7.4 0 0 0-1.73-5.16 5.43 5.43 0 0 0-4.17-1.91 5.76 5.76 0 0 0-4.39 2.05 7.66 7.66 0 0 0-1.87 5.34 6.58 6.58 0 0 0 1.78 4.77 5.82 5.82 0 0 0 4.38 1.84 5.58 5.58 0 0 0 4.31-1.84 7.21 7.21 0 0 0 1.69-5.09zm9.9 12.66l4-.34a7.08 7.08 0 0 0 2 4.36 5.56 5.56 0 0 0 3.87 1.46 6 6 0 0 0 4.62-2.06 7.75 7.75 0 0 0 1.89-5.46 7 7 0 0 0-1.82-5.1 6.34 6.34 0 0 0-4.75-1.87 6.63 6.63 0 0 0-3.3.83 6.41 6.41 0 0 0-2.31 2.16l-3.55-.47 3-15.8h15.3v3.6H486.7l-1.66 8.28a10 10 0 0 1 5.82-1.93 9.23 9.23 0 0 1 6.8 2.79 9.74 9.74 0 0 1 2.77 7.18 11.18 11.18 0 0 1-2.44 7.22 9.76 9.76 0 0 1-8.08 3.74 10 10 0 0 1-6.86-2.35 9.18 9.18 0 0 1-3.03-6.24zm25.83-7.13a28.06 28.06 0 0 1 1.13-8.78 11 11 0 0 1 3.34-5.14 8.53 8.53 0 0 1 5.57-1.8 9.18 9.18 0 0 1 4.35 1 8.4 8.4 0 0 1 3.08 2.88 15.4 15.4 0 0 1 1.91 4.58 29.91 29.91 0 0 1 .7 7.27 28 28 0 0 1-1.12 8.75 10.93 10.93 0 0 1-3.32 5.14 8.57 8.57 0 0 1-5.6 1.82 8.46 8.46 0 0 1-7-3.19q-3.03-3.86-3.04-12.53zm3.9 0q0 7.6 1.77 10.1a5.07 5.07 0 0 0 8.76 0q1.77-2.52 1.77-10.08 0-7.56-1.77-10.1a5.28 5.28 0 0 0-4.42-2.49 4.84 4.84 0 0 0-4.16 2.2q-1.95 2.8-1.95 10.38z"/></g></svg>