<svg xmlns="http://www.w3.org/2000/svg" viewBox="0 0 504.56 504.78"><defs><style>.a{fill:#595959;}</style></defs><title>资源 3</title><path class="a" d="M438.52,150l-24,14.95,88.25,15.18L504.56,111l-21.41,12.55S417.09.47,265.59,0C181.66-.26,118.09,32.69,67.76,87.44,2.15,158.79-4.75,245.73,2.11,293.19,26.24,460,171.8,504.78,171.8,504.78S149.05,494,120.88,470C97.4,449.9,82.29,420.84,82.29,420.84s26.51,25.8,74.92,45.22,88.34,16.34,88.34,16.34c-1.9-1-32.56-11.48-54.61-23.28S150,430.06,150,430.06a74,74,0,0,0,16,2.72,53.57,53.57,0,0,0,17.45-2.46,89.36,89.36,0,0,1-16.16-8.83,61.55,61.55,0,0,1-12.58-11.74s23.52,11.78,36.07,15.12c14.85,3.95,51.82,7.46,51.82,7.46s-21.91-9.52-32.88-16c-9.73-5.77-27.05-21.21-27.05-21.21s30.68,8.05,45.27,9.6c11.27,1.21,37.55,1,49.88.2,20.83-1.3,47.1-9.47,47.1-9.47s-42.83,2-72.59-8.37c-31.72-11.09-43.24-22.56-59.54-36.65-26.27-22.7-51.43-73.26-50-116.11,3.11-94,71.62-136.15,100.86-147.37C370.81,38.14,438.52,150,438.52,150"/><path class="a" d="M299.11,107.48c-1.56,0-3.18.08-4.84.21-42.7,3.37-31.38,48.57-32,63.63-.78,11-3,19.74-10.62,30.52-8.94,10.62-21.49,27.78-27.44,45.67-2.81,8.41-4.14,17-2.9,25.15a4.34,4.34,0,0,0-1.12,1.36c-2.63,2.71-4.53,6.07-6.69,8.48-2,2-4.9,2.69-8,4s-6.65,2.71-8.73,6.88a13.44,13.44,0,0,0-1.33,6.07,27.61,27.61,0,0,0,.56,5.41c.58,4,1.17,7.37.39,9.8-2.51,6.87-2.82,11.58-1.06,15s5.4,4.74,9.48,6.08c8.2,2,19.3,1.36,28,6.05,9.35,4.71,18.85,6.78,26.43,4.74a17.84,17.84,0,0,0,12.2-9.54c5.93,0,12.43-2.72,22.83-3.38,7.06-.58,15.9,2.7,26.05,2a16.67,16.67,0,0,0,1.15,3.38l0,0a19,19,0,0,0,19,10.82c7.79-.61,16.08-5.42,22.8-13.2,6.38-7.72,17-10.95,24-15.18,3.52-2,6.36-4.74,6.56-8.62.23-4-2-8.2-7.21-13.91v-1l0,0c-1.72-2-2.53-5.4-3.42-9.35s-1.84-7.94-5-10.57h0c-.59-.55-1.24-.68-1.9-1.36a3.57,3.57,0,0,0-1.92-.65c4.36-12.91,2.67-25.76-1.74-37.32-5.39-14.24-14.8-26.65-22-35.18-8-10.16-15.92-19.77-15.77-34,.28-21.74,2.4-62-35.8-62Zm5.35,34.4h.13a9.64,9.64,0,0,1,5.9,2,15.5,15.5,0,0,1,4.43,5.39,19.49,19.49,0,0,1,1.68,7.31c0-.2.06-.4.06-.6V157a.71.71,0,0,1,0-.21l0-.24a18.21,18.21,0,0,1-1.52,7.13,9.6,9.6,0,0,1-2.15,3.39,6.07,6.07,0,0,0-.89-.43,11,11,0,0,1-2.88-1.34,12.82,12.82,0,0,0-2.21-.67,18.17,18.17,0,0,0,1.84-2,12.07,12.07,0,0,0,.89-4.06v-.19a12.31,12.31,0,0,0-.62-4,14.48,14.48,0,0,0-1.85-3.38,4.65,4.65,0,0,0-2.69-1.33h-.17a3.21,3.21,0,0,0-2.64,1.33,8.12,8.12,0,0,0-2.07,3.38,11.7,11.7,0,0,0-.91,4v.19a24.34,24.34,0,0,0,.2,2.7c-2-.68-4.43-1.37-6.13-2a17.07,17.07,0,0,1-.19-2V157a17.85,17.85,0,0,1,1.52-7.76,10.92,10.92,0,0,1,4.34-5.39,10,10,0,0,1,6-2Zm-29.93.6h.37a7.07,7.07,0,0,1,4,1.36,14,14,0,0,1,3.47,4.7,17.41,17.41,0,0,1,1.55,6.74v0a14.87,14.87,0,0,1,0,2.68v.81c-.31.07-.57.18-.84.25a26.22,26.22,0,0,0-4,2,11.09,11.09,0,0,0,0-2.7v-.15a13.5,13.5,0,0,0-.83-3.37,6,6,0,0,0-1.68-2.69,2.47,2.47,0,0,0-1.85-.65h-.21a2.37,2.37,0,0,0-1.88,1.33,5.63,5.63,0,0,0-1.21,2.73,9.63,9.63,0,0,0-.23,3.34v.15a12.38,12.38,0,0,0,.82,3.37,6.26,6.26,0,0,0,1.66,2.71,2,2,0,0,0,.35.24,12.91,12.91,0,0,0-1.78,1.37,3.05,3.05,0,0,1-1.32.69,26.26,26.26,0,0,1-2.78-4.06,19.79,19.79,0,0,1-.76-13.49,14.43,14.43,0,0,1,2.86-5.4A5.66,5.66,0,0,1,274.53,142.48Zm13.85,17.23a20.53,20.53,0,0,1,12.28,4c3,2,5.28,2.72,10.63,4.73h0c2.58,1.37,4.1,2.69,4.83,4v-1.32a5.75,5.75,0,0,1,.17,4.75c-1.25,3.14-5.22,6.5-10.75,8.51v0c-2.71,1.37-5.06,3.37-7.83,4.7s-5.94,3-10.23,2.7a11.41,11.41,0,0,1-4.52-.68,37.43,37.43,0,0,1-3.26-2c-2-1.36-3.66-3.35-6.18-4.7v0h-.05c-4-2.48-6.22-5.17-6.93-7.18-.7-2.71-.05-4.74,1.95-6.06,2.26-1.37,3.84-2.74,4.88-3.4s1.45-1,1.78-1.32h0v0a18.7,18.7,0,0,1,8.47-6.07A18.33,18.33,0,0,1,288.38,159.71Zm28.28,21.65c3.63,14.32,12.09,35.11,17.54,45.19,2.89,5.39,8.63,16.76,11.13,30.55a19.29,19.29,0,0,1,5.18.64c6.53-16.88-5.51-35-11-40.06-2.23-2-2.34-3.39-1.24-3.39,6,5.4,13.79,15.89,16.63,27.86a35.72,35.72,0,0,1,.21,16.87,7.26,7.26,0,0,0,2.07.67c10.42,5.4,14.27,9.48,12.43,15.53v-.43c-.62,0-1.22,0-1.83,0h-.16c1.53-4.72-1.83-8.34-10.75-12.37-9.25-4-16.63-3.39-17.9,4.7a11.79,11.79,0,0,0-.17,1.36,12.24,12.24,0,0,1-2.11.65c-4.34,2.71-6.69,6.76-8,12-1.31,5.39-1.72,11.68-2.07,18.88v0c-.21,3.38-1.73,8.47-3.22,13.65-15.16,10.83-36.17,15.54-54,3.38a27,27,0,0,0-4.06-5.39,14.53,14.53,0,0,0-2.78-3.37,16.52,16.52,0,0,0,4.7-.68,6.19,6.19,0,0,0,3.17-3.37c1.09-2.7,0-7.05-3.49-11.75s-9.4-10.05-18.06-15.37c-6.36-4-10-8.79-11.62-14.1s-1.44-11-.15-16.62c2.48-10.81,8.82-21.32,12.87-27.91,1.08-.66.38,1.36-4.12,9.84-4,7.58-11.53,25.22-1.23,38.93a82.11,82.11,0,0,1,6.53-29c5.7-12.91,17.61-35.4,18.55-53.22a33.68,33.68,0,0,1,2.92,2c2.2,1.34,3.84,3.36,6,4.7a12,12,0,0,0,8.85,3.38c.4,0,.76.06,1.12.06a21.61,21.61,0,0,0,10.07-2.71c2.93-1.35,5.26-3.37,7.47-4h.05A19.5,19.5,0,0,0,316.66,181.36Zm22.08,90.5c.38,6.07,3.47,12.58,8.91,13.91,5.94,1.35,14.49-3.37,18.1-7.73l2.13-.09c3.18-.08,5.83.1,8.55,2.7l0,0c2.11,2,3.09,5.36,4,8.85.86,4.05,1.56,7.88,4.14,10.77,4.91,5.32,6.51,9.15,6.42,11.51l0-.06v.18l0-.12c-.15,2.65-1.87,4-5,6-6.36,4.05-17.64,7.2-24.82,15.86-6.24,7.45-13.85,11.51-20.57,12s-12.5-2-15.9-9.08l0,0c-2.12-4.05-1.21-10.35.56-17.07s4.33-13.59,4.68-19.17c.38-7.22.77-13.49,2-18.33s3.11-8.05,6.48-9.94l.45-.22Zm-109.25.49h.1a9.28,9.28,0,0,1,1.58.14c3.8.56,7.13,3.37,10.34,7.6l9.19,16.81,0,0c2.46,5.39,7.62,10.75,12,16.55,4.39,6,7.78,11.43,7.37,15.86v.06c-.58,7.52-4.84,11.6-11.37,13.07s-15.35,0-24.19-4.68c-9.78-5.42-21.4-4.74-28.87-6.09-3.72-.66-6.17-2-7.3-4.05s-1.14-6.07,1.24-12.42v0l0,0c1.19-3.38.31-7.61-.27-11.31-.56-4.05-.84-7.16.43-9.49,1.62-3.38,4-4,7-5.39s6.47-2,9.25-4.74h0v0c2.59-2.7,4.49-6.07,6.75-8.46,1.92-2,3.84-3.4,6.7-3.4Zm72.32-91.67c-4.4,2-9.55,5.41-15,5.41s-9.8-2.7-12.92-4.71c-1.57-1.35-2.83-2.71-3.78-3.38-1.66-1.36-1.46-3.38-.75-3.38,1.1.16,1.3,1.37,2,2,1,.67,2.17,2,3.65,3.37,2.94,2,6.87,4.72,11.78,4.72S297.4,182,300.89,180c2-1.37,4.49-3.38,6.55-4.72,1.57-1.38,1.5-2.71,2.81-2.71,1.31.16.35,1.36-1.48,3.37a81.94,81.94,0,0,1-7,4.72h0Zm-10.93-16v-.22c-.06-.19.13-.42.29-.51a3.22,3.22,0,0,1,2.63.05c.63,0,1.61.67,1.51,1.36-.06.49-.86.67-1.36.67s-.93-.44-1.43-.69S291.05,165.26,290.88,164.68Zm-5.57,0c-.2.59-1.14.5-1.68.67s-.86.69-1.4.69-1.32-.2-1.38-.69c-.1-.67.88-1.34,1.51-1.34A3.24,3.24,0,0,1,285,164c.19.1.36.31.3.51v.21h0Z"/></svg>