<svg xmlns="http://www.w3.org/2000/svg" viewBox="0 0 254.84 168.91"><defs><style>.a{fill:#59b431;}</style></defs><title>资源 1</title><path class="a" d="M168.27,84.61C171.33,38.25,131.08.27,84.61,0A84.14,84.14,0,0,0,0,85.68c.82,45.89,39,83,84.89,82.59a83.88,83.88,0,0,0,59.44-25.4,3.4,3.4,0,0,1,5.27.45,57.43,57.43,0,1,0,51.7-89.15,3.39,3.39,0,0,0-3.6,3.38l-.1,18.17a3.37,3.37,0,0,0,3,3.39,32.51,32.51,0,0,1-3.4,64.87c-18-.1-33.68-14.78-32.32-32.69C165.4,104.59,167.83,91.32,168.27,84.61ZM83.81,141.46a57.33,57.33,0,1,1,57.65-57A57.33,57.33,0,0,1,83.81,141.46Z"/></svg>